<svg xmlns="http://www.w3.org/2000/svg" width="60.608" height="58" viewBox="0 0 60.608 58">
  <g id="logo" transform="translate(-99.196 -20)">
    <g id="Group_86" data-name="Group 86" transform="translate(119.002 29.341)">
      <path id="Path_41" data-name="Path 41" d="M235.658,332.118v27.139h-5.026v-22.2l-3.819,2.762-.241.181a2.448,2.448,0,0,1-1.4.423,2.51,2.51,0,0,1-1.4-4.589l6.868-5,.875-.619.241-.181a2.5,2.5,0,0,1,3.909,2.083Z" transform="translate(-222.662 -329.597)" fill="#434c78"/>
      <path id="Path_42" data-name="Path 42" d="M531.148,442.529a2.513,2.513,0,1,1-2.505-2.506A2.512,2.512,0,0,1,531.148,442.529Z" transform="translate(-510.153 -434.212)" fill="#434c78"/>
    </g>
    <g id="Group_3302" data-name="Group 3302" transform="translate(16.196 -113.093)">
      <path id="Path_11497" data-name="Path 11497" d="M53.151,133.793,26.51,153.149a3.662,3.662,0,0,0-1.33,4.094l10.176,31.319a3.662,3.662,0,0,0,3.483,2.53H71.769a3.662,3.662,0,0,0,3.483-2.53l10.176-31.319a3.662,3.662,0,0,0-1.33-4.094L57.456,133.793A3.662,3.662,0,0,0,53.151,133.793Z" transform="translate(58 0)" fill="#fff"/>
      <g id="Group_3303" data-name="Group 3303" transform="translate(98.082 148.088)">
        <path id="Path_11498" data-name="Path 11498" d="M241.506,333.252V372.6h-7.288V340.409l-5.537,4.005-.35.263a3.55,3.55,0,0,1-2.035.613,3.64,3.64,0,0,1-2.035-6.653l9.958-7.244,1.269-.9.35-.263a3.621,3.621,0,0,1,5.669,3.02Z" transform="translate(-222.662 -329.597)" fill="#12284b"/>
        <path id="Path_11499" data-name="Path 11499" d="M533.41,443.656a3.644,3.644,0,1,1-3.633-3.633A3.643,3.643,0,0,1,533.41,443.656Z" transform="translate(-502.967 -431.597)" fill="#12284b"/>
      </g>
    </g>
  </g>
</svg>
